<svg width="24" height="24" viewBox="0 0 24 24" fill="none" xmlns="http://www.w3.org/2000/svg">
<path d="M10.1686 18.7125C10.0365 18.6556 9.93111 18.5651 9.85256 18.4412C9.77416 18.3174 9.74312 18.174 9.75946 18.0108L10.2319 13.2901L9.23685 13.1905C8.74066 13.1409 8.33445 12.9228 8.0182 12.5362C7.70181 12.1494 7.56844 11.7079 7.6181 11.2117L8.35343 3.86395C8.40309 3.36776 8.6213 2.96147 9.00806 2.64508C9.39464 2.32884 9.83602 2.19554 10.3322 2.2452L15.1484 2.72718C15.6409 2.77647 16.0222 3.00306 16.2922 3.40695C16.5623 3.81086 16.6116 4.23295 16.44 4.67322L14.6706 9.10556L16.0291 9.24151C16.5687 9.29551 16.9439 9.57367 17.1546 10.076C17.3653 10.5783 17.2929 11.0404 16.9375 11.4623L10.9553 18.5189C10.8484 18.646 10.7237 18.7243 10.5811 18.7538C10.4382 18.7834 10.3007 18.7696 10.1686 18.7125Z" fill="#333333"/>
</svg>
