<svg width="16" height="16" viewBox="0 0 16 16" fill="none" xmlns="http://www.w3.org/2000/svg">
<path d="M7.05391 9.43116L5.50525 7.88233C5.41291 7.7901 5.29686 7.74288 5.15708 7.74066C5.01741 7.73855 4.89925 7.78577 4.80258 7.88233C4.70603 7.97899 4.65775 8.0961 4.65775 8.23366C4.65775 8.37121 4.70603 8.48832 4.80258 8.58499L6.63208 10.4145C6.75264 10.5349 6.89325 10.5952 7.05391 10.5952C7.21458 10.5952 7.35519 10.5349 7.47575 10.4145L11.1847 6.70549C11.277 6.61316 11.3242 6.4971 11.3264 6.35732C11.3285 6.21766 11.2813 6.09949 11.1847 6.00283C11.0881 5.90627 10.971 5.85799 10.8334 5.85799C10.6959 5.85799 10.5787 5.90627 10.4821 6.00283L7.05391 9.43116ZM8.00125 14.3337C7.12525 14.3337 6.30186 14.1674 5.53108 13.835C4.7603 13.5025 4.08986 13.0514 3.51975 12.4815C2.94964 11.9116 2.49825 11.2414 2.16558 10.471C1.83303 9.70055 1.66675 8.87738 1.66675 8.00149C1.66675 7.12549 1.83297 6.3021 2.16541 5.53133C2.49786 4.76055 2.94903 4.0901 3.51891 3.51999C4.0888 2.94988 4.75897 2.49849 5.52941 2.16583C6.29986 1.83327 7.12303 1.66699 7.99891 1.66699C8.87491 1.66699 9.6983 1.83321 10.4691 2.16566C11.2399 2.4981 11.9103 2.94927 12.4804 3.51916C13.0505 4.08905 13.5019 4.75921 13.8346 5.52966C14.1671 6.3001 14.3334 7.12327 14.3334 7.99916C14.3334 8.87516 14.1672 9.69855 13.8347 10.4693C13.5023 11.2401 13.0511 11.9105 12.4812 12.4807C11.9114 13.0508 11.2412 13.5022 10.4707 13.8348C9.7003 14.1674 8.87714 14.3337 8.00125 14.3337Z" fill="#2974E5"/>
</svg>
