<svg width="24" height="24" viewBox="0 0 24 24" fill="none" xmlns="http://www.w3.org/2000/svg">
<path d="M4.18276 22.1999C4.01749 22.1999 3.87909 22.144 3.76757 22.0322C3.65592 21.9206 3.6001 21.7822 3.6001 21.617V11.9028C3.6001 11.7376 3.65599 11.5992 3.76777 11.4876C3.87955 11.3758 4.01801 11.3199 4.18315 11.3199C4.34842 11.3199 4.48682 11.3758 4.59834 11.4876C4.70999 11.5992 4.76581 11.7376 4.76581 11.9028V18.7028H11.1772V14.0399C11.1772 13.7221 11.2921 13.4483 11.5217 13.2187C11.7514 12.989 12.0251 12.8742 12.343 12.8742H17.2001C17.9481 12.8742 18.5884 13.1406 19.121 13.6733C19.6537 14.2059 19.9201 14.8462 19.9201 15.5942V21.617C19.9201 21.7822 19.8642 21.9206 19.7524 22.0322C19.6407 22.144 19.5022 22.1999 19.337 22.1999C19.1718 22.1999 19.0334 22.144 18.9219 22.0322C18.8102 21.9206 18.7544 21.7822 18.7544 21.617V19.8685H4.76581V21.617C4.76581 21.7822 4.70992 21.9206 4.59814 22.0322C4.48636 22.144 4.3479 22.1999 4.18276 22.1999ZM7.87341 17.5819C7.32112 17.5819 6.85192 17.3885 6.46581 17.0018C6.0797 16.6152 5.88665 16.1456 5.88665 15.5932C5.88665 15.0409 6.08003 14.5717 6.46678 14.1856C6.85341 13.7995 7.32294 13.6065 7.87536 13.6065C8.42764 13.6065 8.89685 13.7998 9.28296 14.1866C9.66907 14.5732 9.86212 15.0427 9.86212 15.5952C9.86212 16.1475 9.66874 16.6167 9.28198 17.0028C8.89536 17.3889 8.42583 17.5819 7.87341 17.5819ZM12.343 18.7028H18.7544V15.5942C18.7544 15.1668 18.6022 14.8009 18.2978 14.4965C17.9934 14.1921 17.6275 14.0399 17.2001 14.0399H12.343V18.7028ZM7.87438 16.4162C8.10455 16.4162 8.29909 16.3368 8.45802 16.1778C8.61694 16.0189 8.69641 15.8244 8.69641 15.5942C8.69641 15.364 8.61694 15.1695 8.45802 15.0106C8.29909 14.8516 8.10455 14.7722 7.87438 14.7722C7.64422 14.7722 7.44968 14.8516 7.29075 15.0106C7.13182 15.1695 7.05236 15.364 7.05236 15.5942C7.05236 15.8244 7.13182 16.0189 7.29075 16.1778C7.44968 16.3368 7.64422 16.4162 7.87438 16.4162Z" fill="#333333"/>
<path d="M13.6723 6.29054L15.3386 4.85862L15.5219 4.87271C15.6226 4.8847 15.7011 4.92659 15.7574 4.99838C15.8136 5.07016 15.8417 5.14795 15.8417 5.23172C15.8417 5.27961 15.8328 5.32661 15.8149 5.37274C15.797 5.41894 15.7643 5.45934 15.7166 5.49394L14.49 6.56283L14.8584 8.16658C14.863 8.17842 14.8654 8.19178 14.8654 8.20667V8.24677C14.8654 8.3478 14.8306 8.43192 14.761 8.49913C14.6914 8.56641 14.6087 8.60005 14.513 8.60005C14.4831 8.60005 14.4516 8.59654 14.4187 8.58951C14.3858 8.58248 14.3546 8.56897 14.3252 8.54896L14.1772 8.45732L13.6723 6.29054ZM12.6969 3.26725L12.2334 2.17979L12.2968 2.0248C12.3259 1.95286 12.3711 1.89742 12.4324 1.85847C12.4935 1.81952 12.5571 1.80005 12.6231 1.80005C12.6891 1.80005 12.7535 1.81857 12.8165 1.85561C12.8795 1.89257 12.9257 1.9466 12.9551 2.0177L13.5145 3.34388L12.6969 3.26725ZM9.6612 7.44398L11.1046 6.57337L12.5479 7.45543L12.1699 5.80586L13.4415 4.70615L11.769 4.55723L11.1046 2.99931L10.4402 4.54578L8.76769 4.6947L10.0392 5.80586L9.6612 7.44398ZM8.83734 7.92865L9.27527 6.05433L7.82045 4.79344C7.76813 4.75052 7.7317 4.70195 7.71116 4.64773C7.69062 4.59351 7.68035 4.53925 7.68035 4.48495C7.68035 4.38781 7.71368 4.29758 7.78035 4.21426C7.84702 4.13102 7.93939 4.08321 8.05746 4.07084L9.97794 3.90222L10.7204 2.13672C10.7549 2.05386 10.8084 1.99173 10.8809 1.95034C10.9533 1.90887 11.0275 1.88814 11.1034 1.88814C11.1794 1.88814 11.2539 1.90887 11.3269 1.95034C11.4 1.99173 11.454 2.05386 11.4888 2.13672L12.2312 3.90222L14.1517 4.07084C14.2698 4.08321 14.3621 4.13098 14.4288 4.21415C14.4955 4.29739 14.5288 4.38754 14.5288 4.48461C14.5288 4.54005 14.5185 4.59465 14.498 4.64842C14.4774 4.70218 14.441 4.75052 14.3887 4.79344L12.9339 6.05433L13.3733 7.92877C13.3799 7.94862 13.3833 7.97936 13.3833 8.02098C13.3833 8.1389 13.342 8.23772 13.2593 8.31745C13.1767 8.39717 13.0803 8.43704 12.9702 8.43704C12.9495 8.43704 12.8763 8.41558 12.7506 8.37266L11.1046 7.38143L9.45856 8.37266C9.42328 8.39267 9.38666 8.4084 9.3487 8.41986C9.31075 8.43131 9.27451 8.43704 9.23999 8.43704C9.11574 8.43704 9.00875 8.38683 8.91901 8.2864C8.82928 8.1859 8.80205 8.06665 8.83734 7.92865Z" fill="#333333"/>
</svg>
