<svg width="24" height="24" viewBox="0 0 24 24" fill="none" xmlns="http://www.w3.org/2000/svg">
<path d="M10.8 11.9998L14.7 8.0998C14.8833 7.91647 14.975 7.68314 14.975 7.3998C14.975 7.11647 14.8833 6.88314 14.7 6.6998C14.5166 6.51647 14.2833 6.4248 14 6.4248C13.7166 6.4248 13.4833 6.51647 13.3 6.6998L8.69998 11.2998C8.59998 11.3998 8.52914 11.5081 8.48748 11.6248C8.44581 11.7415 8.42498 11.8665 8.42498 11.9998C8.42498 12.1331 8.44581 12.2581 8.48748 12.3748C8.52914 12.4915 8.59998 12.5998 8.69998 12.6998L13.3 17.2998C13.4833 17.4831 13.7166 17.5748 14 17.5748C14.2833 17.5748 14.5166 17.4831 14.7 17.2998C14.8833 17.1165 14.975 16.8831 14.975 16.5998C14.975 16.3165 14.8833 16.0831 14.7 15.8998L10.8 11.9998Z" fill="#C7C7C7"/>
</svg>
