<svg width="24" height="24" viewBox="0 0 24 24" fill="none" xmlns="http://www.w3.org/2000/svg">
<path d="M9.09819 12L16.6309 4.46725C16.8296 4.26858 16.9264 4.03208 16.9212 3.75775C16.916 3.48342 16.8141 3.24683 16.6154 3.048C16.4168 2.84933 16.1803 2.75 15.9059 2.75C15.6316 2.75 15.395 2.84933 15.1962 3.048L7.54044 10.7193C7.35977 10.9001 7.22586 11.1027 7.13869 11.327C7.05136 11.5513 7.00769 11.7757 7.00769 12C7.00769 12.2243 7.05136 12.4487 7.13869 12.673C7.22586 12.8973 7.35977 13.0999 7.54044 13.2808L15.2117 20.952C15.4104 21.1507 15.6443 21.2474 15.9134 21.2423C16.1828 21.2371 16.4168 21.1352 16.6154 20.9365C16.8141 20.7378 16.9134 20.5013 16.9134 20.227C16.9134 19.9527 16.8141 19.7161 16.6154 19.5173L9.09819 12Z" fill="#333333"/>
</svg>
