<svg width="24" height="24" viewBox="0 0 24 24" fill="none" xmlns="http://www.w3.org/2000/svg">
<path d="M11.9999 19.5135C13.9562 17.7622 15.4533 16.0823 16.4912 14.474C17.529 12.8657 18.0479 11.457 18.0479 10.248C18.0479 8.425 17.4687 6.92633 16.3104 5.752C15.1521 4.57767 13.7152 3.9905 11.9999 3.9905C10.2846 3.9905 8.84774 4.57767 7.6894 5.752C6.53107 6.92633 5.9519 8.425 5.9519 10.248C5.9519 11.457 6.47082 12.8657 7.50865 14.474C8.54649 16.0823 10.0436 17.7622 11.9999 19.5135ZM11.9999 20.9403C11.8051 20.9403 11.6102 20.9067 11.4154 20.8395C11.2204 20.7722 11.0441 20.668 10.8864 20.527C9.98907 19.7 9.14932 18.8483 8.36715 17.972C7.58515 17.0958 6.9054 16.2199 6.3279 15.3443C5.75024 14.4686 5.29315 13.6007 4.95665 12.7405C4.62015 11.8802 4.4519 11.0493 4.4519 10.248C4.4519 7.94033 5.19832 6.07208 6.69115 4.64325C8.18415 3.21442 9.95374 2.5 11.9999 2.5C14.0461 2.5 15.8157 3.21442 17.3087 4.64325C18.8015 6.07208 19.5479 7.94033 19.5479 10.248C19.5479 11.0493 19.3797 11.8785 19.0432 12.7355C18.7067 13.5927 18.2512 14.4607 17.6769 15.3395C17.1024 16.2183 16.4242 17.0943 15.6422 17.9672C14.8602 18.8404 14.0204 19.6904 13.1229 20.5173C12.9676 20.6583 12.791 20.764 12.5932 20.8345C12.3955 20.905 12.1977 20.9403 11.9999 20.9403ZM12.0017 11.8652C12.4992 11.8652 12.9245 11.6881 13.2777 11.3338C13.631 10.9794 13.8077 10.5535 13.8077 10.056C13.8077 9.5585 13.6305 9.13308 13.2762 8.77975C12.9218 8.42658 12.4958 8.25 11.9982 8.25C11.5007 8.25 11.0753 8.42717 10.7222 8.7815C10.3688 9.13583 10.1922 9.56183 10.1922 10.0595C10.1922 10.557 10.3693 10.9823 10.7237 11.3355C11.078 11.6887 11.504 11.8652 12.0017 11.8652Z" fill="#333333"/>
</svg>
