<svg width="24" height="24" viewBox="0 0 24 24" fill="none" xmlns="http://www.w3.org/2000/svg">
<path d="M11.25 21.5C11.0375 21.5 10.8595 21.4281 10.7158 21.2843C10.572 21.1404 10.5 20.9623 10.5 20.7498C10.5 20.5371 10.572 20.359 10.7158 20.2155C10.8595 20.0719 11.0375 20 11.25 20H21.75C21.9625 20 22.1406 20.0719 22.2843 20.2158C22.4281 20.3596 22.5 20.5378 22.5 20.7503C22.5 20.9629 22.4281 21.141 22.2843 21.2845C22.1406 21.4282 21.9625 21.5 21.75 21.5H11.25ZM11.5 18.8078C11.5 17.5539 11.9042 16.4629 12.7125 15.5345C13.5209 14.6064 14.5334 14.0544 15.75 13.8788V13.3598C15.75 13.1533 15.822 12.9766 15.9658 12.8298C16.1095 12.6831 16.2875 12.6098 16.5 12.6098C16.7064 12.6098 16.883 12.6831 17.0298 12.8298C17.1766 12.9766 17.25 13.1533 17.25 13.3598V13.8788C18.4564 14.0544 19.4663 14.6064 20.2798 15.5345C21.0933 16.4629 21.5 17.5539 21.5 18.8078H11.5ZM13.4135 17.2923H19.5463C19.2873 16.7013 18.8863 16.2186 18.3433 15.8443C17.8003 15.4699 17.1859 15.2828 16.5 15.2828C15.8039 15.2828 15.1801 15.4699 14.6288 15.8443C14.0776 16.2186 13.6725 16.7013 13.4135 17.2923ZM1.51929 10.9423V4.40403C1.51929 3.9822 1.66704 3.62353 1.96254 3.32803C2.25804 3.03253 2.6167 2.88478 3.03854 2.88478H5.00004C5.32954 2.88478 5.64462 2.9992 5.94529 3.22803C6.24579 3.45686 6.43712 3.73603 6.51929 4.06553V4.25778L13.3 2.31353C13.4642 2.27003 13.6382 2.24661 13.822 2.24328C14.006 2.24011 14.1801 2.2687 14.3443 2.32903L20.7903 4.34228C20.9565 4.39411 21.0875 4.48803 21.1833 4.62403C21.279 4.7602 21.3268 4.91245 21.3268 5.08078V5.25003C21.3268 5.96803 21.064 6.57378 20.5385 7.06728C20.0129 7.56095 19.3846 7.80778 18.6538 7.80778H16.3845V8.35003C16.3845 8.7347 16.2685 9.0802 16.0365 9.38653C15.8045 9.69286 15.5065 9.91786 15.1423 10.0615L8.99229 12.346C8.88845 12.3794 8.78562 12.4069 8.68379 12.4288C8.58179 12.4506 8.4737 12.4615 8.35954 12.4615H3.03854C2.6167 12.4615 2.25804 12.3138 1.96254 12.0183C1.66704 11.7228 1.51929 11.3641 1.51929 10.9423ZM3.01929 7.67303V10.9615H5.01929V4.38478H3.01929V7.67303ZM6.51929 8.38478V10.9615H8.42704L14.323 8.79803C14.4947 8.73653 14.6312 8.6327 14.7325 8.48653C14.8339 8.34036 14.8845 8.17503 14.8845 7.99053V7.80778H13.0328L10.8173 8.54428C10.6211 8.60828 10.431 8.59228 10.247 8.49628C10.0632 8.40011 9.9392 8.24878 9.87504 8.04228C9.81087 7.83978 9.82295 7.64903 9.91129 7.47003C9.99945 7.2912 10.1445 7.16978 10.3463 7.10578L12.7578 6.30778H18.6538C18.8423 6.30778 19.065 6.24561 19.322 6.12128C19.5792 5.99695 19.7206 5.82445 19.7463 5.60378L13.777 3.75378L6.51929 5.80778V8.38478Z" fill="#1C1C1C"/>
</svg>
