<svg width="24" height="24" viewBox="0 0 24 24" fill="none" xmlns="http://www.w3.org/2000/svg">
<path d="M8.68075 13.7501C8.54525 13.7501 8.43609 13.7044 8.35325 13.6131C8.27042 13.5219 8.229 13.4155 8.229 13.2938C8.229 13.2633 8.27575 13.1577 8.36925 12.9771L11.5203 9.82606C11.5926 9.75356 11.6674 9.70064 11.7448 9.66731C11.8221 9.63398 11.9072 9.61731 12 9.61731C12.0928 9.61731 12.1779 9.63398 12.2553 9.66731C12.3326 9.70064 12.4074 9.75356 12.4798 9.82606L15.631 12.9771C15.6743 13.0206 15.7085 13.0691 15.7335 13.1228C15.7585 13.1763 15.771 13.2337 15.771 13.2951C15.771 13.4176 15.7296 13.5241 15.6468 13.6146C15.5639 13.7049 15.4548 13.7501 15.3193 13.7501H8.68075Z" fill="#333333"/>
</svg>
